PathFileType	4	(X/Y/Z)	/Users/niels/Desktop/University/Third Semester/Perception and Action/Exam/Gymnastics Motion Tracking/Code for Gym Tracking/Analyzed Data/Webcam_Backflip/id4_3_baseline_Sports2D/id4_3_baseline_Sports2D_px_person00.trc
DataRate	CameraRate	NumFrames	NumMarkers	Units	OrigDataRate	OrigDataStartFrame	OrigNumFrames
29.8125	29.8125	12	22	m	29.8125	40	160
Frame#	Time	Hip			RHip			RKnee			RAnkle			RBigToe			RSmallToe			RHeel			LHip			LKnee			LAnkle			LBigToe			LSmallToe			LHeel			Neck			Head			Nose			RShoulder			RElbow			RWrist			LShoulder			LElbow			LWrist		
		X1	Y1	Z1	X2	Y2	Z2	X3	Y3	Z3	X4	Y4	Z4	X5	Y5	Z5	X6	Y6	Z6	X7	Y7	Z7	X8	Y8	Z8	X9	Y9	Z9	X10	Y10	Z10	X11	Y11	Z11	X12	Y12	Z12	X13	Y13	Z13	X14	Y14	Z14	X15	Y15	Z15	X16	Y16	Z16	X17	Y17	Z17	X18	Y18	Z18	X19	Y19	Z19	X20	Y20	Z20	X21	Y21	Z21	X22	Y22	Z22
40	1.341719077568134	0.9177368357346637	-0.6262552997722083	0.0	0.9164040379758137	-0.6266787288294394	0.0	0.9444144502773374	-0.735849252430892	0.0	0.9222030561754737	-0.8359300665517778	0.0	0.9458761151495578	-0.8523343349198762	0.0	0.9424881903686841	-0.8606069753759752	0.0	0.9112846680224163	-0.8424820520700489	0.0	0.9202150832298288	-0.6262608775271766	0.0	0.9436669267549852	-0.7340237018577215	0.0	0.923198442135072	-0.8317545419070349	0.0	0.9554031956395689	-0.8468501725582464	0.0	0.9442048731564231	-0.8476245831664204	0.0	0.9112845916551076	-0.8393541099395444	0.0	0.976420220755162	-0.4936592909691548	0.0	1.0266174398798502	-0.4380808743522265	0.0	1.018482786579352	-0.4752178816459452	0.0	0.9669110071982107	-0.49876354023743086	0.0	1.0328238980632394	-0.5079278555688151	0.0	1.095558296376718	-0.4946368603596118	0.0	0.9701744399855737	-0.49735054605998646	0.0	1.0310335025510797	-0.5011951612324298	0.0	1.0799905972811394	-0.4804986627944439	0.0
41	1.3752620545073373	0.9207950902057952	-0.6539465749197555	0.0	0.919751073563753	-0.6549120631735504	0.0	0.9494452526775067	-0.7617629991492094	0.0	0.9226578166687587	-0.8563407264171529	0.0	0.9455663046412573	-0.8700401244517487	0.0	0.9419512099772939	-0.8794457998517469	0.0	0.9112476694013574	-0.8603432219464427	0.0	0.9230244132493839	-0.6537058409810306	0.0	0.9487525287921303	-0.7596314451827592	0.0	0.9233498776823583	-0.8527084951671636	0.0	0.9548561774805491	-0.8643145652745496	0.0	0.9443887465169317	-0.8666639183258579	0.0	0.911761576229669	-0.8584363582264444	0.0	0.9614572576048854	-0.5111100461814962	0.0	1.0044422476661206	-0.4492434432116367	0.0	1.0018585330686913	-0.4869970171325626	0.0	0.9534401892870428	-0.5165683930426409	0.0	1.0263976885954231	-0.5054238973459928	0.0	1.0831915518789952	-0.477071683835494	0.0	0.9570727181971127	-0.5151509392185204	0.0	1.0240746556772862	-0.5026789291003446	0.0	1.0743986938629375	-0.46827399425276117	0.0
42	1.4088050314465406	0.9222106138411472	-0.6686463594601832	0.0	0.9209652825021121	-0.6699256048292225	0.0	0.9533470090002735	-0.7742297098456147	0.0	0.9213787794367609	-0.8644995694874339	0.0	0.9447661962609405	-0.8769694594610252	0.0	0.9400870351090285	-0.886242779924788	0.0	0.9091860803759181	-0.8676062053030188	0.0	0.9248463620039101	-0.6682862114466718	0.0	0.9526868464588233	-0.7719728128124189	0.0	0.9220502231168674	-0.8619220544913314	0.0	0.9526657257804162	-0.8718023079148148	0.0	0.9437004673127803	-0.8749767905786431	0.0	0.9102793261093424	-0.8668790111445492	0.0	0.9500448557145149	-0.5205235245047433	0.0	0.9879210480255226	-0.45497215363242066	0.0	0.9888426945161364	-0.49300715906009335	0.0	0.9427820044794284	-0.5258773429632688	0.0	1.0172955554089214	-0.4988613983828974	0.0	1.0671373977792566	-0.4590007545351668	0.0	0.9482883596823624	-0.5249184644278476	0.0	1.0172431129087007	-0.5021768279825326	0.0	1.0697581214443412	-0.45952887579648016	0.0
43	1.442348008385744	0.9217649992855066	-0.6691291543449538	0.0	0.9198557314438284	-0.6705213463031265	0.0	0.9566652270979995	-0.7722597423061709	0.0	0.9202931414969721	-0.8604998272187071	0.0	0.9453326782879923	-0.8731265711855095	0.0	0.939250112498527	-0.8809536579247841	0.0	0.9074448407113954	-0.8646961596290723	0.0	0.9253280423647336	-0.6687440740962292	0.0	0.9558893711719884	-0.7699463595763877	0.0	0.9208698008849163	-0.859103689096629	0.0	0.9505651691311837	-0.8692408016403096	0.0	0.943573130754466	-0.872315534830872	0.0	0.9086470989425512	-0.8645513885160369	0.0	0.9421864505344517	-0.5194709483785128	0.0	0.977305934994156	-0.45206775813088707	0.0	0.9799414325147359	-0.49025831226185934	0.0	0.9349206770095749	-0.5244290888785889	0.0	1.0075034790693862	-0.4869394165462086	0.0	1.0513913917107898	-0.43992136897897244	0.0	0.9435240070302499	-0.5243107234976906	0.0	1.0116352540150337	-0.4977457472229529	0.0	1.0668957433491426	-0.45210795475843485	0.0
44	1.4758909853249473	0.9197073572694243	-0.656128686600499	0.0	0.9167897813872941	-0.657528970650661	0.0	0.9592050565519589	-0.7571809828880945	0.0	0.9201643298768762	-0.8460105602062807	0.0	0.9476138738346697	-0.8598896131306283	0.0	0.9403195517684239	-0.8655547690218929	0.0	0.9070516924675301	-0.8526386695763645	0.0	0.9244773211065789	-0.6558182351403118	0.0	0.9581368186704339	-0.7548269774008314	0.0	0.9204726996046282	-0.8454920585212404	0.0	0.9496151699287027	-0.8576063995988862	0.0	0.9447499007853988	-0.859695619029054	0.0	0.9078410095006979	-0.8523452642677292	0.0	0.9373790230795945	-0.5075140503135209	0.0	0.9716698564504473	-0.4392573434152569	0.0	0.9748313219287772	-0.4774144936845581	0.0	0.9294773335731499	-0.5118489800525353	0.0	0.998719186662824	-0.4687218795042938	0.0	1.039018799766	-0.4188107312034455	0.0	0.9417732985025413	-0.5129423698539466	0.0	1.0076188360783762	-0.4877971397808121	0.0	1.065948252599047	-0.4435547783519036	0.0
45	1.5094339622641506	0.9165175255097407	-0.632160784318716	0.0	0.912401093736899	-0.633574177503725	0.0	0.9602412509501562	-0.7322016628289738	0.0	0.9207579785319694	-0.8237880440473554	0.0	0.9507677244785576	-0.8397463615220374	0.0	0.9427343907237281	-0.8433076919072826	0.0	0.9077364633226715	-0.8332201358108158	0.0	0.9225183902216079	-0.6320179741418513	0.0	0.9587391061508399	-0.729871532784361	0.0	0.9207013367534743	-0.8236060843987172	0.0	0.9500658995964251	-0.8388461993627504	0.0	0.9472648107563232	-0.8392801122424368	0.0	0.9078650558424373	-0.8322665582113642	0.0	0.9348662591397395	-0.4860115650883606	0.0	0.969593332599811	-0.4173589258123225	0.0	0.9726337321066147	-0.45514965221294174	0.0	0.9259363618572997	-0.48962428175168327	0.0	0.9920081779443871	-0.44444441601117396	0.0	1.0313319834588868	-0.39490147471760534	0.0	0.9418338545824536	-0.49220805527108547	0.0	1.005063435367073	-0.47166613913269995	0.0	1.0664635448747393	-0.431969078598886	0.0
46	1.542976939203354	0.9127322342950989	-0.6008570074694274	0.0	0.907395565462538	-0.6023242896326806	0.0	0.9591342722566444	-0.701305602833315	0.0	0.9213695946737088	-0.7968695258856149	0.0	0.9535558152229238	-0.8156850262478902	0.0	0.945229511648576	-0.8176867716035667	0.0	0.9086001016205496	-0.8087753288680278	0.0	0.919740249132611	-0.6009087091535138	0.0	0.9570958804430004	-0.6991679113776353	0.0	0.9209647267140355	-0.7965115103390126	0.0	0.9514241965165797	-0.8154905553635644	0.0	0.9504160050891893	-0.8139385389732248	0.0	0.9080884414635388	-0.8069743871203339	0.0	0.9338194828929044	-0.45765102136299757	0.0	0.9697316931116418	-0.3887695880036058	0.0	0.9722895057466013	-0.4258681619493836	0.0	0.9237408896763701	-0.4606365045505167	0.0	0.9876218291464403	-0.41553308376991466	0.0	1.0277853207839744	-0.3681458445208134	0.0	0.9426855812990731	-0.46473811632006956	0.0	1.0035097553012189	-0.44974115015488514	0.0	1.0675113587090357	-0.41621042755548526	0.0
47	1.5765199161425574	0.9088002685333852	-0.5661029166300597	0.0	0.9023755534493207	-0.5675915682816373	0.0	0.9558068883024443	-0.6681010909482527	0.0	0.9213870424857278	-0.7679573996904712	0.0	0.9549687161226105	-0.790490282847083	0.0	0.9465791307852999	-0.7915882331824065	0.0	0.9088868906688726	-0.7816595755488183	0.0	0.9164661460253148	-0.5662619133512079	0.0	0.9531716993450976	-0.6664094035371794	0.0	0.9207159746885074	-0.7671044988296202	0.0	0.952762124397309	-0.7901639944763889	0.0	0.9530699726721925	-0.7866516091410566	0.0	0.9078513375578482	-0.7790757509394746	0.0	0.9335022032477648	-0.4257522992233971	0.0	0.9710608912475632	-0.3565633222683826	0.0	0.9728453810830809	-0.39288252068702445	0.0	0.9223297747636527	-0.42834403928321174	0.0	0.9850402543850146	-0.38403514382808523	0.0	1.0265575944795196	-0.3392753672745758	0.0	0.9436792711092138	-0.43366781021455875	0.0	1.0023848777029454	-0.42334410913815934	0.0	1.0681825065545214	-0.39604863292728265	0.0
48	1.6100628930817606	0.9050101047992031	-0.5313140240754318	0.0	0.8977229292592731	-0.532645662908215	0.0	0.9507407811853228	-0.6352705256799261	0.0	0.9204700971997991	-0.739074812100669	0.0	0.9543380329582898	-0.7661714745638493	0.0	0.9458654061489934	-0.7668487341670177	0.0	0.9082042000639907	-0.7537642875683834	0.0	0.9130830469398173	-0.5313789264329506	0.0	0.9475428502693566	-0.6342797925335053	0.0	0.9196523128578172	-0.7376918790121171	0.0	0.9530194759759391	-0.7651355022143316	0.0	0.9541117234241654	-0.7599640619662754	0.0	0.9067728084902015	-0.7506393822693141	0.0	0.9333681793416265	-0.3934630728340976	0.0	0.9728363040503293	-0.3236946984978913	0.0	0.9735681053319103	-0.35947475756073344	0.0	0.9212179159963588	-0.39590556934179577	0.0	0.9832275134933635	-0.3521412406959498	0.0	1.025532774970223	-0.30968888809012296	0.0	0.9445097193610572	-0.401908947459326	0.0	1.0011969907132763	-0.3942938457366131	0.0	1.0678789683542673	-0.372090450950487	0.0
49	1.6436058700209641	0.9015203733079172	-0.49901920033959984	0.0	0.893650954442096	-0.49992256895326126	0.0	0.9446543862492178	-0.6046138821869986	0.0	0.9183568895182475	-0.7115178876113714	0.0	0.9512582321912727	-0.7436729776754144	0.0	0.9425224282165968	-0.7441178007343263	0.0	0.9062521917468376	-0.7263678992278051	0.0	0.9099439581582204	-0.49874029530246294	0.0	0.941070548198908	-0.6044707783997861	0.0	0.9176195031020119	-0.7098910658086728	0.0	0.9512839517544496	-0.7419691646054806	0.0	0.9527697359569812	-0.7355978916546461	0.0	0.9046803575882825	-0.7231439716510679	0.0	0.9330799809763581	-0.3631446551776211	0.0	0.9744831814669989	-0.2925836563905461	0.0	0.9739517999226927	-0.3282267059156981	0.0	0.9200795608848048	-0.3656066145959009	0.0	0.9810736124755098	-0.32187693777265836	0.0	1.023186787154317	-0.2810320545346664	0.0	0.9450616666310461	-0.3716715941751658	0.0	0.9996363796577528	-0.36444650917603283	0.0	1.0663395406598437	-0.345484581326139	0.0
50	1.6771488469601674	0.8983884271495772	-0.47071907392178025	0.0	0.8902710285948433	-0.47100012643022904	0.0	0.9382064103349891	-0.5772519830531396	0.0	0.9147960113695981	-0.6861107472967218	0.0	0.9456428694982199	-0.7230994175683795	0.0	0.9364808274324624	-0.7232828940264717	0.0	0.9027210579179002	-0.7003951475136682	0.0	0.9071733747743224	-0.46992309559932405	0.0	0.93448612946418	-0.5779574448939996	0.0	0.9144946003042764	-0.6847528731687821	0.0	0.9470672314558455	-0.7214343587766358	0.0	0.9487639912725767	-0.7143735304352796	0.0	0.9014981032944192	-0.6977037941109868	0.0	0.9324981597592139	-0.336163150173923	0.0	0.9756168483499882	-0.265003006651809	0.0	0.9737098277738806	-0.300767932022084	0.0	0.9187800317625678	-0.33873130068749735	0.0	0.9779350664540892	-0.29466748419920086	0.0	1.0190412385364358	-0.25457060065100007	0.0	0.9452758949374398	-0.34434283821561446	0.0	0.9976314998129191	-0.3354721703204336	0.0	1.0636174164887202	-0.31765069946726165	0.0
51	1.710691823899371	0.8955710377965922	-0.446979706531842	0.0	0.8875569457122386	-0.44664937971166113	0.0	0.9318783064805287	-0.553789609266195	0.0	0.9098126568715867	-0.6634964011644867	0.0	0.9379183733015334	-0.7043165522663716	0.0	0.9283471686006888	-0.7041721761877514	0.0	0.897591020882298	-0.6767382921755704	0.0	0.9046228905735657	-0.445670654076595	0.0	0.9281258511267999	-0.5552505612904579	0.0	0.9101678462949007	-0.6628942138200993	0.0	0.9404042464178053	-0.7036988400829723	0.0	0.9422476569487601	-0.6964088945010227	0.0	0.8972123756845919	-0.6751816713944568	0.0	0.931662203655697	-0.31307407675702426	0.0	0.9761435267454266	-0.2420965960663912	0.0	0.972804490205896	-0.27790307256533014	0.0	0.9173503213823805	-0.3158007432755577	0.0	0.9738319450582167	-0.27111010921556494	0.0	1.013531016562285	-0.23102413271628738	0.0	0.9451657687155393	-0.32065693110375865	0.0	0.9954287954525404	-0.30873936231663557	0.0	1.0601320386073472	-0.2900950434695209	0.0
